<?xml version="1.0" encoding="utf-8"?>
<!-- Generator: Adobe Adobe Illustrator 24.2.0, SVG Export Plug-In . SVG Version: 6.00 Build 0)  -->
<svg version="1.1" id="Logo" xmlns="http://www.w3.org/2000/svg" xmlns:xlink="http://www.w3.org/1999/xlink" x="0px" y="0px" viewBox="0 0 1024 1024" style="enable-background:new 0 0 1024 1024;" xml:space="preserve">
	<style type="text/css">
	.st0{fill:url(#SVGID_1_);stroke:#E1C327;stroke-width:16;stroke-linecap:round;stroke-linejoin:round;stroke-miterlimit:10;}
	.st1{fill:url(#SVGID_2_);}
</style>
	<linearGradient id="SVGID_1_" gradientUnits="userSpaceOnUse" x1="7.9852" y1="5.4802" x2="1176.6055" y2="1179.9087">
		<stop offset="0" style="stop-color:#095045" />
		<stop offset="1" style="stop-color:#063B33" />
	</linearGradient>
	<path class="st0" d="M901.51,226.28L564.17,31.76c-32.45-18.71-72.42-18.69-104.86,0.06L122.18,226.7
	c-32.43,18.75-52.4,53.38-52.38,90.84l0.21,389.41c0.02,37.46,20.02,72.07,52.48,90.78l337.34,194.52
	c32.45,18.71,72.42,18.69,104.86-0.06L901.82,797.3c32.43-18.75,52.4-53.38,52.38-90.84l-0.21-389.41
	C953.97,279.59,933.96,244.99,901.51,226.28z" />
	<g>
		<linearGradient id="SVGID_2_" gradientUnits="userSpaceOnUse" x1="1037.0001" y1="1030.1274" x2="48.4357" y2="-10.7113">
			<stop offset="0" style="stop-color:#E1C327" />
			<stop offset="1" style="stop-color:#FFE354" />
		</linearGradient>
		<path class="st1" d="M266.44,193.15h73.31c0.79,0,1.46,0.61,1.52,1.4l43.58,521.59c0.05,0.65,0.51,1.19,1.14,1.35l0.9,0.23
		c0.82,0.21,1.65-0.29,1.86-1.1l91.19-360.25c0.17-0.68,0.78-1.15,1.48-1.15h56.88c0.69,0,1.3,0.46,1.48,1.13l96.41,360.62
		c0.18,0.67,0.78,1.13,1.48,1.13l0,0c0.79,0,1.45-0.61,1.52-1.4l44.41-522.16c0.07-0.79,0.73-1.4,1.52-1.4h72.45
		c0.91,0,1.61,0.78,1.52,1.68l-65.79,634.64c-0.08,0.78-0.74,1.37-1.52,1.37h-84.16c-0.69,0-1.3-0.46-1.48-1.13l-94.69-353.58
		c-0.18-0.67-0.78-1.13-1.48-1.13h-1.08c-0.7,0-1.31,0.47-1.48,1.15L417,829.7c-0.17,0.68-0.78,1.15-1.48,1.15h-83.29
		c-0.78,0-1.44-0.59-1.52-1.37l-65.79-634.64C264.83,193.93,265.53,193.15,266.44,193.15z" />
	</g>
</svg>